<mxfile host="65bd71144e">
    <diagram id="vVJwFs5IXqaZfeeX4-DH" name="Page-1">
        <mxGraphModel dx="3796" dy="2221" grid="1" gridSize="10" guides="1" tooltips="1" connect="1" arrows="1" fold="1" page="1" pageScale="1" pageWidth="850" pageHeight="1100" math="0" shadow="0">
            <root>
                <mxCell id="0"/>
                <mxCell id="1" parent="0"/>
                <mxCell id="211" value="" style="rounded=1;whiteSpace=wrap;html=1;strokeWidth=1;fontSize=20;fillColor=none;" vertex="1" parent="1">
                    <mxGeometry x="50" y="-320" width="170" height="220" as="geometry"/>
                </mxCell>
                <mxCell id="72" value="" style="rounded=1;whiteSpace=wrap;html=1;fillColor=none;strokeColor=#005700;strokeWidth=5;" parent="1" vertex="1">
                    <mxGeometry x="328" y="-885" width="162" height="80" as="geometry"/>
                </mxCell>
                <mxCell id="190" value="" style="rounded=1;whiteSpace=wrap;html=1;fontSize=20;fillColor=none;" vertex="1" parent="1">
                    <mxGeometry x="83" y="-920" width="160" height="270" as="geometry"/>
                </mxCell>
                <mxCell id="2" value="" style="rounded=1;whiteSpace=wrap;html=1;" parent="1" vertex="1">
                    <mxGeometry x="20" y="250" width="200" height="310" as="geometry"/>
                </mxCell>
                <mxCell id="4" value="Navbar" style="rounded=1;whiteSpace=wrap;html=1;" parent="1" vertex="1">
                    <mxGeometry x="40" y="260" width="160" height="30" as="geometry"/>
                </mxCell>
                <mxCell id="5" value="LogIn &amp;amp; Register" style="rounded=1;whiteSpace=wrap;html=1;" parent="1" vertex="1">
                    <mxGeometry x="40" y="300" width="160" height="30" as="geometry"/>
                </mxCell>
                <mxCell id="6" value="GameNight-Übersicht" style="rounded=1;whiteSpace=wrap;html=1;" parent="1" vertex="1">
                    <mxGeometry x="40" y="354" width="160" height="80" as="geometry"/>
                </mxCell>
                <mxCell id="8" value="Navbar" style="rounded=1;whiteSpace=wrap;html=1;" parent="1" vertex="1">
                    <mxGeometry x="250" y="130" width="160" height="30" as="geometry"/>
                </mxCell>
                <mxCell id="9" value="" style="endArrow=classic;html=1;entryX=0.5;entryY=1;entryDx=0;entryDy=0;exitX=1;exitY=0.5;exitDx=0;exitDy=0;" parent="1" source="4" target="8" edge="1">
                    <mxGeometry width="50" height="50" relative="1" as="geometry">
                        <mxPoint x="100" y="400" as="sourcePoint"/>
                        <mxPoint x="250" y="315" as="targetPoint"/>
                    </mxGeometry>
                </mxCell>
                <mxCell id="10" value="Footer: secondär Nav" style="rounded=1;whiteSpace=wrap;html=1;strokeColor=#FFFA66;" parent="1" vertex="1">
                    <mxGeometry x="40" y="502" width="160" height="30" as="geometry"/>
                </mxCell>
                <mxCell id="11" value="Filter-Möglichkeiten" style="rounded=1;whiteSpace=wrap;html=1;" parent="1" vertex="1">
                    <mxGeometry x="40" y="462" width="160" height="30" as="geometry"/>
                </mxCell>
                <mxCell id="14" value="user.user_image&lt;br&gt;user.username" style="rounded=1;whiteSpace=wrap;html=1;" parent="1" vertex="1">
                    <mxGeometry x="1070" y="20" width="120" height="40" as="geometry"/>
                </mxCell>
                <mxCell id="15" value="my GNs" style="rounded=1;whiteSpace=wrap;html=1;" parent="1" vertex="1">
                    <mxGeometry x="520" y="-40" width="120" height="40" as="geometry"/>
                </mxCell>
                <mxCell id="16" value="create new GN" style="rounded=1;whiteSpace=wrap;html=1;gradientColor=none;strokeColor=#CC0000;" parent="1" vertex="1">
                    <mxGeometry x="240" y="40" width="120" height="40" as="geometry"/>
                </mxCell>
                <mxCell id="17" value="Drop-Down&lt;br&gt;LogOut" style="rounded=1;whiteSpace=wrap;html=1;" parent="1" vertex="1">
                    <mxGeometry x="1250" y="20" width="120" height="40" as="geometry"/>
                </mxCell>
                <mxCell id="18" value="" style="rounded=1;whiteSpace=wrap;html=1;" parent="1" vertex="1">
                    <mxGeometry x="1170" y="265" width="120" height="395" as="geometry"/>
                </mxCell>
                <mxCell id="19" value="" style="endArrow=classic;html=1;entryX=-0.019;entryY=0.119;entryDx=0;entryDy=0;exitX=0.593;exitY=1.055;exitDx=0;exitDy=0;entryPerimeter=0;exitPerimeter=0;" parent="1" source="14" target="18" edge="1">
                    <mxGeometry width="50" height="50" relative="1" as="geometry">
                        <mxPoint x="540" y="-50" as="sourcePoint"/>
                        <mxPoint x="590" y="-100" as="targetPoint"/>
                    </mxGeometry>
                </mxCell>
                <mxCell id="20" value="" style="endArrow=classic;html=1;entryX=0;entryY=0.5;entryDx=0;entryDy=0;exitX=0.5;exitY=0;exitDx=0;exitDy=0;" parent="1" source="8" target="14" edge="1">
                    <mxGeometry width="50" height="50" relative="1" as="geometry">
                        <mxPoint x="420" y="40" as="sourcePoint"/>
                        <mxPoint x="370" y="90" as="targetPoint"/>
                    </mxGeometry>
                </mxCell>
                <mxCell id="21" value="" style="endArrow=classic;html=1;entryX=0.5;entryY=1;entryDx=0;entryDy=0;exitX=0.5;exitY=0;exitDx=0;exitDy=0;" parent="1" source="8" target="15" edge="1">
                    <mxGeometry width="50" height="50" relative="1" as="geometry">
                        <mxPoint x="340" y="140" as="sourcePoint"/>
                        <mxPoint x="450" y="10" as="targetPoint"/>
                    </mxGeometry>
                </mxCell>
                <mxCell id="24" value="Profile:&lt;br&gt;+ edit" style="rounded=1;whiteSpace=wrap;html=1;strokeColor=#CC0000;" parent="1" vertex="1">
                    <mxGeometry x="1180" y="330" width="100" height="40" as="geometry"/>
                </mxCell>
                <mxCell id="25" value="roter Rahmen bedeutet&lt;br&gt;Edit-Rechte" style="rounded=1;whiteSpace=wrap;html=1;strokeColor=#CC0000;gradientColor=none;" parent="1" vertex="1">
                    <mxGeometry x="-1335" y="-880" width="120" height="60" as="geometry"/>
                </mxCell>
                <mxCell id="28" value="" style="endArrow=classic;html=1;entryX=0;entryY=0.5;entryDx=0;entryDy=0;exitX=1;exitY=0.5;exitDx=0;exitDy=0;" parent="1" source="14" target="17" edge="1">
                    <mxGeometry width="50" height="50" relative="1" as="geometry">
                        <mxPoint x="620" y="190" as="sourcePoint"/>
                        <mxPoint x="670" y="-100" as="targetPoint"/>
                    </mxGeometry>
                </mxCell>
                <mxCell id="31" value="list of:&lt;br&gt;my GN active" style="rounded=1;whiteSpace=wrap;html=1;" parent="1" vertex="1">
                    <mxGeometry x="1180" y="450" width="100" height="40" as="geometry"/>
                </mxCell>
                <mxCell id="32" value="list of:&lt;br&gt;my GN passiv" style="rounded=1;whiteSpace=wrap;html=1;" parent="1" vertex="1">
                    <mxGeometry x="1180" y="500" width="100" height="40" as="geometry"/>
                </mxCell>
                <mxCell id="33" value="Mails&amp;nbsp;" style="rounded=1;whiteSpace=wrap;html=1;gradientColor=none;strokeColor=#FFFA66;" parent="1" vertex="1">
                    <mxGeometry x="1180" y="390" width="100" height="40" as="geometry"/>
                </mxCell>
                <mxCell id="34" value="User-Profile-Page:" style="text;html=1;strokeColor=none;fillColor=none;align=center;verticalAlign=middle;whiteSpace=wrap;rounded=0;" parent="1" vertex="1">
                    <mxGeometry x="1170" y="185" width="120" height="100" as="geometry"/>
                </mxCell>
                <mxCell id="35" value="Nav" style="rounded=1;whiteSpace=wrap;html=1;gradientColor=none;strokeColor=#CCCCCC;" parent="1" vertex="1">
                    <mxGeometry x="1180" y="274" width="100" height="40" as="geometry"/>
                </mxCell>
                <mxCell id="36" value="Secondär Nav" style="rounded=1;whiteSpace=wrap;html=1;gradientColor=none;strokeColor=#CCCCCC;" parent="1" vertex="1">
                    <mxGeometry x="1180" y="553" width="100" height="40" as="geometry"/>
                </mxCell>
                <mxCell id="37" value="" style="endArrow=classic;html=1;entryX=0.5;entryY=1;entryDx=0;entryDy=0;exitX=0.5;exitY=0;exitDx=0;exitDy=0;" parent="1" source="15" target="38" edge="1">
                    <mxGeometry width="50" height="50" relative="1" as="geometry">
                        <mxPoint x="580" y="-39.99999999999977" as="sourcePoint"/>
                        <mxPoint x="730" y="-100" as="targetPoint"/>
                    </mxGeometry>
                </mxCell>
                <mxCell id="38" value="" style="rounded=1;whiteSpace=wrap;html=1;" parent="1" vertex="1">
                    <mxGeometry x="520" y="-180" width="120" height="110" as="geometry"/>
                </mxCell>
                <mxCell id="39" value="my GN passiv" style="rounded=1;whiteSpace=wrap;html=1;" parent="1" vertex="1">
                    <mxGeometry x="530" y="-120" width="100" height="40" as="geometry"/>
                </mxCell>
                <mxCell id="40" value="my GN active" style="rounded=1;whiteSpace=wrap;html=1;" parent="1" vertex="1">
                    <mxGeometry x="530" y="-170" width="100" height="40" as="geometry"/>
                </mxCell>
                <mxCell id="42" value="" style="endArrow=classic;html=1;entryX=0.5;entryY=1;entryDx=0;entryDy=0;" parent="1" target="45" edge="1">
                    <mxGeometry width="50" height="50" relative="1" as="geometry">
                        <mxPoint x="580" y="-180" as="sourcePoint"/>
                        <mxPoint x="730" y="-240" as="targetPoint"/>
                    </mxGeometry>
                </mxCell>
                <mxCell id="43" value="my GN passiv" style="rounded=1;whiteSpace=wrap;html=1;" parent="1" vertex="1">
                    <mxGeometry x="530" y="-260" width="100" height="40" as="geometry"/>
                </mxCell>
                <mxCell id="44" value="my GN active" style="rounded=1;whiteSpace=wrap;html=1;" parent="1" vertex="1">
                    <mxGeometry x="530" y="-310" width="100" height="40" as="geometry"/>
                </mxCell>
                <mxCell id="45" value="" style="rounded=1;whiteSpace=wrap;html=1;strokeColor=#CC0000;" parent="1" vertex="1">
                    <mxGeometry x="520" y="-650" width="120" height="440" as="geometry"/>
                </mxCell>
                <mxCell id="47" value="Nav" style="rounded=1;whiteSpace=wrap;html=1;" parent="1" vertex="1">
                    <mxGeometry x="530" y="-632" width="100" height="40" as="geometry"/>
                </mxCell>
                <mxCell id="48" value="GameNight Detail" style="text;html=1;strokeColor=none;fillColor=none;align=center;verticalAlign=middle;whiteSpace=wrap;rounded=0;" parent="1" vertex="1">
                    <mxGeometry x="520" y="-692" width="120" height="50" as="geometry"/>
                </mxCell>
                <mxCell id="49" value="Secondär Nav" style="rounded=1;whiteSpace=wrap;html=1;gradientColor=none;strokeColor=#CCCCCC;" parent="1" vertex="1">
                    <mxGeometry x="530" y="-260" width="100" height="40" as="geometry"/>
                </mxCell>
                <mxCell id="50" value="GN Header" style="rounded=1;whiteSpace=wrap;html=1;strokeColor=#CC0000;" parent="1" vertex="1">
                    <mxGeometry x="530" y="-582" width="100" height="40" as="geometry"/>
                </mxCell>
                <mxCell id="54" value="Participants" style="rounded=1;whiteSpace=wrap;html=1;strokeColor=#CC0000;" parent="1" vertex="1">
                    <mxGeometry x="530" y="-532" width="100" height="40" as="geometry"/>
                </mxCell>
                <mxCell id="55" value="" style="endArrow=classic;html=1;entryX=1;entryY=0.5;entryDx=0;entryDy=0;exitX=0;exitY=0.5;exitDx=0;exitDy=0;" parent="1" source="56" target="54" edge="1">
                    <mxGeometry width="50" height="50" relative="1" as="geometry">
                        <mxPoint x="661" y="-40" as="sourcePoint"/>
                        <mxPoint x="661" y="-10" as="targetPoint"/>
                    </mxGeometry>
                </mxCell>
                <mxCell id="56" value="Liste Participant:&lt;br&gt;Participant:&lt;br&gt;(Image, Name)&lt;br&gt;Status&lt;br&gt;Task" style="rounded=1;whiteSpace=wrap;html=1;strokeColor=#CC0000;" parent="1" vertex="1">
                    <mxGeometry x="1000" y="-552" width="100" height="92" as="geometry"/>
                </mxCell>
                <mxCell id="57" value="Teilnehmer =&amp;nbsp;Participant" style="text;html=1;strokeColor=none;fillColor=none;align=center;verticalAlign=middle;whiteSpace=wrap;rounded=0;" parent="1" vertex="1">
                    <mxGeometry x="1000" y="-592" width="100" height="32" as="geometry"/>
                </mxCell>
                <mxCell id="58" value="snacks" style="rounded=1;whiteSpace=wrap;html=1;strokeColor=#CC0000;" parent="1" vertex="1">
                    <mxGeometry x="530" y="-482" width="100" height="40" as="geometry"/>
                </mxCell>
                <mxCell id="59" value="Rating" style="rounded=1;whiteSpace=wrap;html=1;strokeColor=#CC0000;" parent="1" vertex="1">
                    <mxGeometry x="530" y="-363" width="100" height="40" as="geometry"/>
                </mxCell>
                <mxCell id="60" value="" style="endArrow=classic;html=1;entryX=1;entryY=0.5;entryDx=0;entryDy=0;exitX=0;exitY=0.5;exitDx=0;exitDy=0;" parent="1" source="61" target="58" edge="1">
                    <mxGeometry width="50" height="50" relative="1" as="geometry">
                        <mxPoint x="811" y="-5" as="sourcePoint"/>
                        <mxPoint x="780" y="-365" as="targetPoint"/>
                    </mxGeometry>
                </mxCell>
                <mxCell id="61" value="Liste snacks:&lt;br&gt;snacks.name&lt;br&gt;snacks.type&lt;br&gt;user.username&lt;br&gt;user.user_image" style="rounded=1;whiteSpace=wrap;html=1;strokeColor=#CC0000;" parent="1" vertex="1">
                    <mxGeometry x="1140" y="-508" width="100" height="145" as="geometry"/>
                </mxCell>
                <mxCell id="62" value="Image GN" style="rounded=1;whiteSpace=wrap;html=1;strokeColor=#FFFA66;" parent="1" vertex="1">
                    <mxGeometry x="530" y="-315" width="100" height="40" as="geometry"/>
                </mxCell>
                <mxCell id="63" value="" style="endArrow=none;html=1;exitX=0.013;exitY=0.564;exitDx=0;exitDy=0;exitPerimeter=0;entryX=1.033;entryY=0.564;entryDx=0;entryDy=0;entryPerimeter=0;" parent="1" edge="1">
                    <mxGeometry width="50" height="50" relative="1" as="geometry">
                        <mxPoint x="521.56" y="-374.84000000000015" as="sourcePoint"/>
                        <mxPoint x="643.96" y="-374.84000000000015" as="targetPoint"/>
                    </mxGeometry>
                </mxCell>
                <mxCell id="65" value="" style="endArrow=none;html=1;exitX=0.013;exitY=0.564;exitDx=0;exitDy=0;exitPerimeter=0;entryX=1.033;entryY=0.564;entryDx=0;entryDy=0;entryPerimeter=0;" parent="1" edge="1">
                    <mxGeometry width="50" height="50" relative="1" as="geometry">
                        <mxPoint x="517.6000000000001" y="-268.00000000000017" as="sourcePoint"/>
                        <mxPoint x="640" y="-268.00000000000017" as="targetPoint"/>
                    </mxGeometry>
                </mxCell>
                <mxCell id="66" value="" style="endArrow=classic;html=1;entryX=1;entryY=1;entryDx=0;entryDy=0;exitX=0;exitY=0.5;exitDx=0;exitDy=0;" parent="1" source="31" target="45" edge="1">
                    <mxGeometry width="50" height="50" relative="1" as="geometry">
                        <mxPoint x="420" y="-323" as="sourcePoint"/>
                        <mxPoint x="520" y="-308" as="targetPoint"/>
                    </mxGeometry>
                </mxCell>
                <mxCell id="69" value="grüner Rahmen bedeutet&lt;br&gt;Share-Funktion" style="rounded=1;whiteSpace=wrap;html=1;strokeColor=#005700;strokeWidth=4;" parent="1" vertex="1">
                    <mxGeometry x="-1335" y="-800" width="120" height="60" as="geometry"/>
                </mxCell>
                <mxCell id="70" value="" style="endArrow=classic;html=1;exitX=1.032;exitY=0.105;exitDx=0;exitDy=0;exitPerimeter=0;entryX=0.5;entryY=1;entryDx=0;entryDy=0;" parent="1" source="45" target="71" edge="1">
                    <mxGeometry width="50" height="50" relative="1" as="geometry">
                        <mxPoint x="460" y="-590" as="sourcePoint"/>
                        <mxPoint x="460" y="-660" as="targetPoint"/>
                    </mxGeometry>
                </mxCell>
                <mxCell id="71" value="Share:&lt;br&gt;GameNight:&lt;br&gt;image&lt;br&gt;Kurz-Text&lt;br&gt;link" style="rounded=1;whiteSpace=wrap;html=1;fillColor=none;" parent="1" vertex="1">
                    <mxGeometry x="720" y="-960" width="120" height="100" as="geometry"/>
                </mxCell>
                <mxCell id="73" value="" style="endArrow=classic;html=1;exitX=1;exitY=0.5;exitDx=0;exitDy=0;entryX=0;entryY=0.5;entryDx=0;entryDy=0;" parent="1" source="72" target="75" edge="1">
                    <mxGeometry width="50" height="50" relative="1" as="geometry">
                        <mxPoint x="950" y="-700" as="sourcePoint"/>
                        <mxPoint x="930" y="-690" as="targetPoint"/>
                    </mxGeometry>
                </mxCell>
                <mxCell id="75" value="Share:&lt;br&gt;&amp;amp; Export (Kalendar-Eintrag" style="rounded=1;whiteSpace=wrap;html=1;strokeColor=#005700;gradientColor=none;" parent="1" vertex="1">
                    <mxGeometry x="930" y="-780" width="140" height="80" as="geometry"/>
                </mxCell>
                <mxCell id="111" style="edgeStyle=none;html=1;entryX=1;entryY=0.5;entryDx=0;entryDy=0;exitX=0;exitY=0.5;exitDx=0;exitDy=0;" edge="1" parent="1" source="109" target="86">
                    <mxGeometry relative="1" as="geometry"/>
                </mxCell>
                <mxCell id="77" value="Comments" style="rounded=1;whiteSpace=wrap;html=1;strokeColor=#CC0000;" parent="1" vertex="1">
                    <mxGeometry x="530" y="-430" width="100" height="40" as="geometry"/>
                </mxCell>
                <mxCell id="79" value="" style="endArrow=classic;html=1;exitX=1;exitY=0.5;exitDx=0;exitDy=0;entryX=-0.004;entryY=0.406;entryDx=0;entryDy=0;entryPerimeter=0;" parent="1" source="78" target="80" edge="1">
                    <mxGeometry width="50" height="50" relative="1" as="geometry">
                        <mxPoint x="830" y="-540" as="sourcePoint"/>
                        <mxPoint x="980" y="-660" as="targetPoint"/>
                    </mxGeometry>
                </mxCell>
                <mxCell id="80" value="Konzept &amp;amp; Umsetzung&lt;br&gt;???" style="rounded=1;whiteSpace=wrap;html=1;strokeColor=#FFFA66;gradientColor=none;" parent="1" vertex="1">
                    <mxGeometry x="980" y="-692" width="120" height="60" as="geometry"/>
                </mxCell>
                <mxCell id="81" value="gelber Rahmen bedeutet&lt;br&gt;keine Ahnung&lt;br&gt;Bedarf?&lt;br&gt;machbar??" style="rounded=1;whiteSpace=wrap;html=1;strokeColor=#FFFA66;" parent="1" vertex="1">
                    <mxGeometry x="-1335" y="-720" width="120" height="103" as="geometry"/>
                </mxCell>
                <mxCell id="82" value="Nachrichten senden zwischen &lt;br&gt;LogIn-Usern" style="rounded=1;whiteSpace=wrap;html=1;strokeColor=#FFFA66;gradientColor=none;" parent="1" vertex="1">
                    <mxGeometry x="1170" y="-692" width="120" height="60" as="geometry"/>
                </mxCell>
                <mxCell id="83" value="" style="endArrow=classic;html=1;exitX=1;exitY=0.5;exitDx=0;exitDy=0;entryX=0;entryY=0.5;entryDx=0;entryDy=0;" parent="1" source="80" target="82" edge="1">
                    <mxGeometry width="50" height="50" relative="1" as="geometry">
                        <mxPoint x="830" y="-547" as="sourcePoint"/>
                        <mxPoint x="989.5200000000002" y="-657.64" as="targetPoint"/>
                    </mxGeometry>
                </mxCell>
                <mxCell id="84" value="" style="endArrow=classic;html=1;entryX=0.75;entryY=0;entryDx=0;entryDy=0;exitX=0.64;exitY=1.025;exitDx=0;exitDy=0;exitPerimeter=0;" parent="1" source="78" target="136" edge="1">
                    <mxGeometry width="50" height="50" relative="1" as="geometry">
                        <mxPoint x="380" y="-720" as="sourcePoint"/>
                        <mxPoint x="840" y="-490" as="targetPoint"/>
                    </mxGeometry>
                </mxCell>
                <mxCell id="85" value="" style="rounded=1;whiteSpace=wrap;html=1;strokeColor=#FFFFFF;gradientColor=none;" parent="1" vertex="1">
                    <mxGeometry x="-340" y="382" width="200" height="190" as="geometry"/>
                </mxCell>
                <mxCell id="86" value="Bedarf?&lt;br&gt;machbar??&lt;br&gt;Zeitrahmen" style="rounded=1;whiteSpace=wrap;html=1;strokeColor=#FFFA66;" parent="1" vertex="1">
                    <mxGeometry x="1060" y="-320" width="120" height="70" as="geometry"/>
                </mxCell>
                <mxCell id="87" value="" style="endArrow=classic;html=1;fontSize=25;entryX=1;entryY=0.75;entryDx=0;entryDy=0;exitX=0;exitY=0.5;exitDx=0;exitDy=0;" parent="1" source="86" target="59" edge="1">
                    <mxGeometry width="50" height="50" relative="1" as="geometry">
                        <mxPoint x="1020" y="-190" as="sourcePoint"/>
                        <mxPoint x="390" y="-390" as="targetPoint"/>
                    </mxGeometry>
                </mxCell>
                <mxCell id="88" value="" style="endArrow=classic;html=1;fontSize=25;exitX=0;exitY=0.612;exitDx=0;exitDy=0;entryX=1;entryY=0.5;entryDx=0;entryDy=0;exitPerimeter=0;" parent="1" source="86" target="62" edge="1">
                    <mxGeometry width="50" height="50" relative="1" as="geometry">
                        <mxPoint x="1070" y="-300" as="sourcePoint"/>
                        <mxPoint x="640" y="-323" as="targetPoint"/>
                    </mxGeometry>
                </mxCell>
                <mxCell id="89" value="" style="endArrow=classic;html=1;fontSize=25;entryX=0;entryY=0.5;entryDx=0;entryDy=0;exitX=0.5;exitY=1;exitDx=0;exitDy=0;" parent="1" source="91" target="6" edge="1">
                    <mxGeometry width="50" height="50" relative="1" as="geometry">
                        <mxPoint x="-70" y="210" as="sourcePoint"/>
                        <mxPoint x="180" y="300" as="targetPoint"/>
                    </mxGeometry>
                </mxCell>
                <mxCell id="90" value="" style="endArrow=classic;html=1;fontSize=25;exitX=1;exitY=0.25;exitDx=0;exitDy=0;entryX=0;entryY=0.5;entryDx=0;entryDy=0;" parent="1" source="5" target="93" edge="1">
                    <mxGeometry width="50" height="50" relative="1" as="geometry">
                        <mxPoint x="180" y="380" as="sourcePoint"/>
                        <mxPoint x="470" y="310" as="targetPoint"/>
                    </mxGeometry>
                </mxCell>
                <mxCell id="91" value="&lt;span style=&quot;color: rgb(240, 240, 240); font-family: Helvetica; font-size: 20px; font-style: normal; font-variant-ligatures: normal; font-variant-caps: normal; font-weight: 400; letter-spacing: normal; orphans: 2; text-align: center; text-indent: 0px; text-transform: none; widows: 2; word-spacing: 0px; -webkit-text-stroke-width: 0px; background-color: rgb(42, 37, 47); text-decoration-thickness: initial; text-decoration-style: initial; text-decoration-color: initial; float: none; display: inline !important;&quot;&gt;Grid aus Card(s)-Overview GN&lt;/span&gt;" style="rounded=1;whiteSpace=wrap;html=1;strokeColor=#FFFFFF;gradientColor=none;" parent="1" vertex="1">
                    <mxGeometry x="-490" y="-437.5" width="200" height="107" as="geometry"/>
                </mxCell>
                <mxCell id="92" value="" style="endArrow=classic;html=1;fontSize=25;entryX=1;entryY=0.5;entryDx=0;entryDy=0;exitX=0;exitY=0.5;exitDx=0;exitDy=0;" parent="1" source="11" target="85" edge="1">
                    <mxGeometry width="50" height="50" relative="1" as="geometry">
                        <mxPoint x="180" y="380" as="sourcePoint"/>
                        <mxPoint x="230" y="330" as="targetPoint"/>
                    </mxGeometry>
                </mxCell>
                <mxCell id="93" value="" style="rounded=1;whiteSpace=wrap;html=1;fillColor=none;" parent="1" vertex="1">
                    <mxGeometry x="320" y="274" width="200" height="120" as="geometry"/>
                </mxCell>
                <mxCell id="94" value="" style="endArrow=classic;html=1;fontSize=25;exitX=1;exitY=0.5;exitDx=0;exitDy=0;entryX=0;entryY=0.5;entryDx=0;entryDy=0;" parent="1" source="10" target="95" edge="1">
                    <mxGeometry width="50" height="50" relative="1" as="geometry">
                        <mxPoint x="200" y="575" as="sourcePoint"/>
                        <mxPoint x="470" y="610" as="targetPoint"/>
                    </mxGeometry>
                </mxCell>
                <mxCell id="95" value="" style="rounded=1;whiteSpace=wrap;html=1;fillColor=none;" parent="1" vertex="1">
                    <mxGeometry x="470" y="560" width="200" height="162" as="geometry"/>
                </mxCell>
                <mxCell id="97" value="GN Nähe&lt;br&gt;Darstellung auf map" style="rounded=1;whiteSpace=wrap;html=1;strokeColor=#FFFA66;" parent="1" vertex="1">
                    <mxGeometry x="-320" y="392" width="160" height="50" as="geometry"/>
                </mxCell>
                <mxCell id="98" value="" style="endArrow=classic;html=1;exitX=0;exitY=0.5;exitDx=0;exitDy=0;entryX=1;entryY=0.5;entryDx=0;entryDy=0;" edge="1" parent="1" source="99" target="77">
                    <mxGeometry width="50" height="50" relative="1" as="geometry">
                        <mxPoint x="1050" y="-160" as="sourcePoint"/>
                        <mxPoint x="470" y="-350" as="targetPoint"/>
                    </mxGeometry>
                </mxCell>
                <mxCell id="99" value="Bedarf?&lt;br&gt;machbar??&lt;br&gt;keine Ahnung" style="rounded=1;whiteSpace=wrap;html=1;strokeColor=#FFFA66;" vertex="1" parent="1">
                    <mxGeometry x="1060" y="-170" width="120" height="63" as="geometry"/>
                </mxCell>
                <mxCell id="100" value="Sandwich" style="rounded=1;whiteSpace=wrap;html=1;" vertex="1" parent="1">
                    <mxGeometry x="485" y="680" width="160" height="30" as="geometry"/>
                </mxCell>
                <mxCell id="101" value="" style="rounded=1;whiteSpace=wrap;html=1;strokeColor=#FFFFFF;gradientColor=none;" vertex="1" parent="1">
                    <mxGeometry x="830" y="750" width="200" height="200" as="geometry"/>
                </mxCell>
                <mxCell id="103" value="" style="endArrow=classic;html=1;exitX=1;exitY=0.5;exitDx=0;exitDy=0;entryX=0;entryY=0.5;entryDx=0;entryDy=0;" edge="1" parent="1" source="100" target="101">
                    <mxGeometry width="50" height="50" relative="1" as="geometry">
                        <mxPoint x="400" y="460" as="sourcePoint"/>
                        <mxPoint x="450" y="410" as="targetPoint"/>
                    </mxGeometry>
                </mxCell>
                <mxCell id="104" value="Contact" style="rounded=1;whiteSpace=wrap;html=1;" vertex="1" parent="1">
                    <mxGeometry x="845" y="770" width="160" height="30" as="geometry"/>
                </mxCell>
                <mxCell id="105" value="About" style="rounded=1;whiteSpace=wrap;html=1;" vertex="1" parent="1">
                    <mxGeometry x="845" y="810" width="160" height="30" as="geometry"/>
                </mxCell>
                <mxCell id="106" value="Impressum" style="rounded=1;whiteSpace=wrap;html=1;" vertex="1" parent="1">
                    <mxGeometry x="845" y="860" width="160" height="30" as="geometry"/>
                </mxCell>
                <mxCell id="107" value="Datenschutz" style="rounded=1;whiteSpace=wrap;html=1;" vertex="1" parent="1">
                    <mxGeometry x="845" y="900" width="160" height="30" as="geometry"/>
                </mxCell>
                <mxCell id="109" value="erst nach GN &lt;br&gt;möglich" style="rounded=1;whiteSpace=wrap;html=1;strokeColor=#FFFA66;" vertex="1" parent="1">
                    <mxGeometry x="1340" y="-270" width="120" height="130" as="geometry"/>
                </mxCell>
                <mxCell id="112" style="edgeStyle=none;html=1;entryX=1;entryY=0.5;entryDx=0;entryDy=0;exitX=0;exitY=0.5;exitDx=0;exitDy=0;" edge="1" parent="1" source="109" target="99">
                    <mxGeometry relative="1" as="geometry">
                        <mxPoint x="1350" y="-230" as="sourcePoint"/>
                        <mxPoint x="1190" y="-291.5" as="targetPoint"/>
                    </mxGeometry>
                </mxCell>
                <mxCell id="113" value="" style="rounded=1;whiteSpace=wrap;html=1;strokeColor=#FFFFFF;" vertex="1" parent="1">
                    <mxGeometry x="-1410" y="-470" width="290" height="470" as="geometry"/>
                </mxCell>
                <mxCell id="114" value="&lt;b&gt;&lt;font style=&quot;font-size: 20px;&quot;&gt;User Gruppen&lt;/font&gt;&lt;/b&gt;" style="rounded=1;whiteSpace=wrap;html=1;gradientColor=none;strokeColor=none;" vertex="1" parent="1">
                    <mxGeometry x="-1380" y="-443" width="230" height="40" as="geometry"/>
                </mxCell>
                <mxCell id="115" value="User LogedIn GN Teilnehmer" style="rounded=1;whiteSpace=wrap;html=1;gradientColor=none;strokeColor=#CCCCCC;" vertex="1" parent="1">
                    <mxGeometry x="-1380" y="-299" width="230" height="40" as="geometry"/>
                </mxCell>
                <mxCell id="116" value="User LogedIn GN Owner" style="rounded=1;whiteSpace=wrap;html=1;gradientColor=none;strokeColor=#CCCCCC;" vertex="1" parent="1">
                    <mxGeometry x="-1380" y="-363" width="230" height="40" as="geometry"/>
                </mxCell>
                <mxCell id="117" value="User LougedOut" style="rounded=1;whiteSpace=wrap;html=1;gradientColor=none;strokeColor=#CCCCCC;" vertex="1" parent="1">
                    <mxGeometry x="-1380" y="-119" width="230" height="40" as="geometry"/>
                </mxCell>
                <mxCell id="119" value="&lt;span style=&quot;font-size: 25px;&quot;&gt;User eingelogt, der Owner für eine GameNighht (GN)&lt;/span&gt;&lt;br style=&quot;font-size: 25px;&quot;&gt;&lt;span style=&quot;font-size: 25px;&quot;&gt;ist&lt;/span&gt;" style="rounded=1;whiteSpace=wrap;html=1;strokeColor=#FFFFFF;" vertex="1" parent="1">
                    <mxGeometry x="-1010" y="-430" width="290" height="180" as="geometry"/>
                </mxCell>
                <mxCell id="120" value="" style="endArrow=classic;html=1;fontSize=20;exitX=1;exitY=0.5;exitDx=0;exitDy=0;entryX=0;entryY=0.5;entryDx=0;entryDy=0;" edge="1" parent="1" source="116" target="119">
                    <mxGeometry width="50" height="50" relative="1" as="geometry">
                        <mxPoint x="-1020" y="-370" as="sourcePoint"/>
                        <mxPoint x="-970" y="-420" as="targetPoint"/>
                    </mxGeometry>
                </mxCell>
                <mxCell id="121" value="Admin" style="rounded=1;whiteSpace=wrap;html=1;gradientColor=none;strokeColor=#CCCCCC;" vertex="1" parent="1">
                    <mxGeometry x="-1380" y="-177" width="230" height="40" as="geometry"/>
                </mxCell>
                <mxCell id="122" value="User LogedIn" style="rounded=1;whiteSpace=wrap;html=1;gradientColor=none;strokeColor=#CCCCCC;" vertex="1" parent="1">
                    <mxGeometry x="-1380" y="-239" width="230" height="40" as="geometry"/>
                </mxCell>
                <mxCell id="124" value="Admin-Gruppen:&lt;br&gt;&lt;br&gt;&lt;br&gt;&lt;br&gt;&lt;br&gt;&lt;br&gt;&lt;br&gt;&lt;br&gt;&lt;br&gt;" style="rounded=1;whiteSpace=wrap;html=1;strokeColor=#FFFA66;" vertex="1" parent="1">
                    <mxGeometry x="-1660" y="-239" width="120" height="163" as="geometry"/>
                </mxCell>
                <mxCell id="125" value="Content" style="rounded=1;whiteSpace=wrap;html=1;gradientColor=none;strokeColor=#CCCCCC;" vertex="1" parent="1">
                    <mxGeometry x="-1650" y="-196" width="100" height="40" as="geometry"/>
                </mxCell>
                <mxCell id="126" value="Code" style="rounded=1;whiteSpace=wrap;html=1;gradientColor=none;strokeColor=#CCCCCC;" vertex="1" parent="1">
                    <mxGeometry x="-1650" y="-146" width="100" height="40" as="geometry"/>
                </mxCell>
                <mxCell id="127" value="" style="endArrow=classic;html=1;fontSize=20;entryX=1;entryY=0.5;entryDx=0;entryDy=0;exitX=0;exitY=0.5;exitDx=0;exitDy=0;" edge="1" parent="1" source="121" target="124">
                    <mxGeometry width="50" height="50" relative="1" as="geometry">
                        <mxPoint x="-1440" y="-240" as="sourcePoint"/>
                        <mxPoint x="-1390" y="-290" as="targetPoint"/>
                    </mxGeometry>
                </mxCell>
                <mxCell id="134" value="" style="endArrow=classic;html=1;entryX=0.75;entryY=1;entryDx=0;entryDy=0;exitX=0;exitY=0.5;exitDx=0;exitDy=0;" edge="1" parent="1" source="32" target="45">
                    <mxGeometry width="50" height="50" relative="1" as="geometry">
                        <mxPoint x="1190" y="472" as="sourcePoint"/>
                        <mxPoint x="650" y="-200" as="targetPoint"/>
                    </mxGeometry>
                </mxCell>
                <mxCell id="136" value="Mails &amp;amp; Counter" style="rounded=1;whiteSpace=wrap;html=1;strokeColor=#FFFA66;" vertex="1" parent="1">
                    <mxGeometry x="485" y="630" width="160" height="30" as="geometry"/>
                </mxCell>
                <mxCell id="137" value="Home" style="rounded=1;whiteSpace=wrap;html=1;" vertex="1" parent="1">
                    <mxGeometry x="485" y="580" width="160" height="30" as="geometry"/>
                </mxCell>
                <mxCell id="141" value="" style="endArrow=classic;html=1;shadow=1;fontSize=20;exitX=1;exitY=0.5;exitDx=0;exitDy=0;entryX=0;entryY=0.5;entryDx=0;entryDy=0;" edge="1" parent="1" source="136" target="33">
                    <mxGeometry width="50" height="50" relative="1" as="geometry">
                        <mxPoint x="760" y="620" as="sourcePoint"/>
                        <mxPoint x="1020" y="500" as="targetPoint"/>
                    </mxGeometry>
                </mxCell>
                <mxCell id="142" value="LogIn" style="rounded=1;whiteSpace=wrap;html=1;" vertex="1" parent="1">
                    <mxGeometry x="340" y="294" width="160" height="30" as="geometry"/>
                </mxCell>
                <mxCell id="143" value="Register" style="rounded=1;whiteSpace=wrap;html=1;" vertex="1" parent="1">
                    <mxGeometry x="340" y="334" width="160" height="30" as="geometry"/>
                </mxCell>
                <mxCell id="144" value="???&lt;br&gt;möglich,&lt;br&gt;wollen wir es" style="rounded=1;whiteSpace=wrap;html=1;strokeColor=#FFFA66;gradientColor=none;" vertex="1" parent="1">
                    <mxGeometry x="1170" y="-780" width="120" height="60" as="geometry"/>
                </mxCell>
                <mxCell id="146" value="" style="endArrow=classic;html=1;shadow=1;fontSize=20;entryX=1;entryY=0.5;entryDx=0;entryDy=0;exitX=0;exitY=0.5;exitDx=0;exitDy=0;" edge="1" parent="1" source="144" target="75">
                    <mxGeometry width="50" height="50" relative="1" as="geometry">
                        <mxPoint x="910" y="-630" as="sourcePoint"/>
                        <mxPoint x="960" y="-680" as="targetPoint"/>
                    </mxGeometry>
                </mxCell>
                <mxCell id="148" value="???" style="rounded=1;whiteSpace=wrap;html=1;strokeColor=#FFFA66;" vertex="1" parent="1">
                    <mxGeometry x="-320" y="452" width="160" height="50" as="geometry"/>
                </mxCell>
                <mxCell id="149" value="???" style="rounded=1;whiteSpace=wrap;html=1;strokeColor=#FFFA66;" vertex="1" parent="1">
                    <mxGeometry x="-320" y="513" width="160" height="50" as="geometry"/>
                </mxCell>
                <mxCell id="151" value="" style="endArrow=classic;html=1;shadow=1;fontSize=20;entryX=0.5;entryY=0;entryDx=0;entryDy=0;exitX=0.5;exitY=1;exitDx=0;exitDy=0;" edge="1" parent="1" source="190" target="16">
                    <mxGeometry width="50" height="50" relative="1" as="geometry">
                        <mxPoint x="70" y="-310" as="sourcePoint"/>
                        <mxPoint x="120" y="-360" as="targetPoint"/>
                    </mxGeometry>
                </mxCell>
                <mxCell id="152" value="" style="endArrow=classic;html=1;shadow=1;fontSize=20;entryX=0.5;entryY=1;entryDx=0;entryDy=0;exitX=0.5;exitY=0;exitDx=0;exitDy=0;" edge="1" parent="1" source="8" target="16">
                    <mxGeometry width="50" height="50" relative="1" as="geometry">
                        <mxPoint x="70" y="10" as="sourcePoint"/>
                        <mxPoint x="120" y="-40" as="targetPoint"/>
                    </mxGeometry>
                </mxCell>
                <mxCell id="159" value="" style="endArrow=classic;html=1;shadow=1;fontSize=20;entryX=1;entryY=0.5;entryDx=0;entryDy=0;exitX=0.008;exitY=0.552;exitDx=0;exitDy=0;exitPerimeter=0;" edge="1" parent="1" source="162" target="91">
                    <mxGeometry width="50" height="50" relative="1" as="geometry">
                        <mxPoint x="-200" y="-287" as="sourcePoint"/>
                        <mxPoint x="340" y="-430" as="targetPoint"/>
                    </mxGeometry>
                </mxCell>
                <mxCell id="161" value="" style="endArrow=classic;html=1;shadow=1;fontSize=20;exitX=0;exitY=0.5;exitDx=0;exitDy=0;entryX=0.5;entryY=0;entryDx=0;entryDy=0;" edge="1" parent="1" source="50" target="211">
                    <mxGeometry width="50" height="50" relative="1" as="geometry">
                        <mxPoint x="140" y="-400" as="sourcePoint"/>
                        <mxPoint x="160" y="-350" as="targetPoint"/>
                    </mxGeometry>
                </mxCell>
                <mxCell id="162" value="" style="rounded=1;whiteSpace=wrap;html=1;fontSize=20;fillColor=none;" vertex="1" parent="1">
                    <mxGeometry x="30" y="-342.5" width="200" height="362.5" as="geometry"/>
                </mxCell>
                <mxCell id="52" value="" style="endArrow=classic;html=1;entryX=0;entryY=0.5;entryDx=0;entryDy=0;exitX=0.75;exitY=1;exitDx=0;exitDy=0;" parent="1" source="51" target="50" edge="1">
                    <mxGeometry width="50" height="50" relative="1" as="geometry">
                        <mxPoint x="661" y="-200" as="sourcePoint"/>
                        <mxPoint x="661" y="-170" as="targetPoint"/>
                    </mxGeometry>
                </mxCell>
                <mxCell id="163" value="game.image" style="rounded=1;whiteSpace=wrap;html=1;strokeColor=#FFFFFF;" vertex="1" parent="1">
                    <mxGeometry x="63" y="-311" width="130" height="40" as="geometry"/>
                </mxCell>
                <mxCell id="164" value="gamenight.gn_name" style="rounded=1;whiteSpace=wrap;html=1;strokeColor=#FFFFFF;" vertex="1" parent="1">
                    <mxGeometry x="63" y="-261" width="130" height="40" as="geometry"/>
                </mxCell>
                <mxCell id="165" value="game.name" style="rounded=1;whiteSpace=wrap;html=1;strokeColor=#FFFFFF;" vertex="1" parent="1">
                    <mxGeometry x="63" y="-211" width="130" height="40" as="geometry"/>
                </mxCell>
                <mxCell id="166" value="user.username" style="rounded=1;whiteSpace=wrap;html=1;strokeColor=#FFFFFF;" vertex="1" parent="1">
                    <mxGeometry x="65" y="-80" width="130" height="40" as="geometry"/>
                </mxCell>
                <mxCell id="167" value="Participants" style="rounded=1;whiteSpace=wrap;html=1;strokeColor=#FFFA66;" vertex="1" parent="1">
                    <mxGeometry x="65" y="-30" width="130" height="40" as="geometry"/>
                </mxCell>
                <mxCell id="168" value="gamenight.location" style="rounded=1;whiteSpace=wrap;html=1;strokeColor=#FFFFFF;" vertex="1" parent="1">
                    <mxGeometry x="63" y="-161" width="130" height="40" as="geometry"/>
                </mxCell>
                <mxCell id="170" value="Create&amp;nbsp;&lt;br&gt;new gamenight&amp;nbsp;" style="text;html=1;strokeColor=none;fillColor=none;align=center;verticalAlign=middle;whiteSpace=wrap;rounded=0;" vertex="1" parent="1">
                    <mxGeometry x="80" y="-980" width="170" height="50" as="geometry"/>
                </mxCell>
                <mxCell id="172" value="gamenight.description" style="rounded=1;whiteSpace=wrap;html=1;fillColor=none;" vertex="1" parent="1">
                    <mxGeometry x="100" y="-711" width="130" height="40" as="geometry"/>
                </mxCell>
                <mxCell id="173" value="gamenight.gn_name" style="rounded=1;whiteSpace=wrap;html=1;fillColor=none;" vertex="1" parent="1">
                    <mxGeometry x="100" y="-910" width="130" height="40" as="geometry"/>
                </mxCell>
                <mxCell id="174" value="game.name" style="rounded=1;whiteSpace=wrap;html=1;fillColor=none;" vertex="1" parent="1">
                    <mxGeometry x="100" y="-860" width="130" height="40" as="geometry"/>
                </mxCell>
                <mxCell id="175" value="gamenight.date" style="rounded=1;whiteSpace=wrap;html=1;fillColor=none;" vertex="1" parent="1">
                    <mxGeometry x="100" y="-810" width="130" height="40" as="geometry"/>
                </mxCell>
                <mxCell id="176" value="gamenight.location" style="rounded=1;whiteSpace=wrap;html=1;fillColor=none;" vertex="1" parent="1">
                    <mxGeometry x="100" y="-760" width="130" height="40" as="geometry"/>
                </mxCell>
                <mxCell id="78" value="" style="rounded=1;whiteSpace=wrap;html=1;fillColor=none;strokeColor=#FFFA66;" parent="1" vertex="1">
                    <mxGeometry x="335" y="-799" width="162" height="53" as="geometry"/>
                </mxCell>
                <mxCell id="180" value="" style="endArrow=classic;html=1;shadow=1;fontSize=20;entryX=1;entryY=0.5;entryDx=0;entryDy=0;exitX=0;exitY=0.5;exitDx=0;exitDy=0;" edge="1" parent="1" source="54" target="167">
                    <mxGeometry width="50" height="50" relative="1" as="geometry">
                        <mxPoint x="260" y="-320" as="sourcePoint"/>
                        <mxPoint x="310" y="-370" as="targetPoint"/>
                    </mxGeometry>
                </mxCell>
                <mxCell id="181" value="" style="endArrow=classic;html=1;shadow=1;fontSize=20;exitX=1.015;exitY=0.401;exitDx=0;exitDy=0;entryX=0;entryY=0.5;entryDx=0;entryDy=0;exitPerimeter=0;" edge="1" parent="1" source="190" target="51">
                    <mxGeometry width="50" height="50" relative="1" as="geometry">
                        <mxPoint x="260" y="-580" as="sourcePoint"/>
                        <mxPoint x="310" y="-630" as="targetPoint"/>
                    </mxGeometry>
                </mxCell>
                <mxCell id="184" value="Tasks" style="rounded=1;whiteSpace=wrap;html=1;fillColor=none;strokeColor=#FFFA66;" vertex="1" parent="1">
                    <mxGeometry x="-210" y="-682" width="130" height="40" as="geometry"/>
                </mxCell>
                <mxCell id="185" value="Comments" style="rounded=1;whiteSpace=wrap;html=1;fillColor=none;strokeColor=#FFFA66;" vertex="1" parent="1">
                    <mxGeometry x="-210" y="-572" width="130" height="40" as="geometry"/>
                </mxCell>
                <mxCell id="186" value="eigenes Create erforderlich ???" style="text;html=1;strokeColor=none;fillColor=none;align=center;verticalAlign=middle;whiteSpace=wrap;rounded=0;fontSize=12;" vertex="1" parent="1">
                    <mxGeometry x="-210" y="-722" width="130" height="30" as="geometry"/>
                </mxCell>
                <mxCell id="193" value="eigenes Create erforderlich ???" style="text;html=1;strokeColor=none;fillColor=none;align=center;verticalAlign=middle;whiteSpace=wrap;rounded=0;fontSize=12;" vertex="1" parent="1">
                    <mxGeometry x="-210" y="-610" width="130" height="30" as="geometry"/>
                </mxCell>
                <mxCell id="195" value="" style="endArrow=classic;html=1;shadow=1;fontSize=12;entryX=-0.005;entryY=0.382;entryDx=0;entryDy=0;entryPerimeter=0;exitX=1;exitY=0.5;exitDx=0;exitDy=0;" edge="1" parent="1" source="119">
                    <mxGeometry width="50" height="50" relative="1" as="geometry">
                        <mxPoint x="550" y="-180" as="sourcePoint"/>
                        <mxPoint x="-590.8000000000002" y="-266.34000000000015" as="targetPoint"/>
                    </mxGeometry>
                </mxCell>
                <mxCell id="198" value="" style="endArrow=classic;html=1;shadow=1;fontSize=12;entryX=-0.018;entryY=0.587;entryDx=0;entryDy=0;entryPerimeter=0;" edge="1" parent="1" target="2">
                    <mxGeometry width="50" height="50" relative="1" as="geometry">
                        <mxPoint x="-580" y="-260" as="sourcePoint"/>
                        <mxPoint x="-230" y="-120" as="targetPoint"/>
                    </mxGeometry>
                </mxCell>
                <mxCell id="199" value="&lt;font style=&quot;font-size: 20px;&quot;&gt;Home&lt;/font&gt;" style="text;html=1;strokeColor=none;fillColor=none;align=center;verticalAlign=middle;whiteSpace=wrap;rounded=0;fontSize=12;" vertex="1" parent="1">
                    <mxGeometry x="90" y="210" width="60" height="30" as="geometry"/>
                </mxCell>
                <mxCell id="200" value="" style="rounded=1;whiteSpace=wrap;html=1;strokeColor=#FFFFFF;strokeWidth=1;fontSize=20;" vertex="1" parent="1">
                    <mxGeometry x="620" y="290" width="150" height="210" as="geometry"/>
                </mxCell>
                <mxCell id="201" value="" style="endArrow=classic;html=1;shadow=1;fontSize=20;entryX=1;entryY=0.5;entryDx=0;entryDy=0;" edge="1" parent="1" source="200" target="143">
                    <mxGeometry width="50" height="50" relative="1" as="geometry">
                        <mxPoint x="410" y="480" as="sourcePoint"/>
                        <mxPoint x="540" y="360" as="targetPoint"/>
                    </mxGeometry>
                </mxCell>
                <mxCell id="202" value="Create User" style="text;html=1;strokeColor=none;fillColor=none;align=center;verticalAlign=middle;whiteSpace=wrap;rounded=0;" vertex="1" parent="1">
                    <mxGeometry x="620" y="236" width="120" height="50" as="geometry"/>
                </mxCell>
                <mxCell id="203" value="Upload: user.user_image" style="rounded=1;whiteSpace=wrap;html=1;fillColor=none;" vertex="1" parent="1">
                    <mxGeometry x="630" y="334" width="130" height="26" as="geometry"/>
                </mxCell>
                <mxCell id="204" value="user.first_name" style="rounded=1;whiteSpace=wrap;html=1;fillColor=none;" vertex="1" parent="1">
                    <mxGeometry x="630" y="370" width="130" height="26" as="geometry"/>
                </mxCell>
                <mxCell id="205" value="user.last_name" style="rounded=1;whiteSpace=wrap;html=1;fillColor=none;" vertex="1" parent="1">
                    <mxGeometry x="630" y="402" width="130" height="26" as="geometry"/>
                </mxCell>
                <mxCell id="206" value="user.email" style="rounded=1;whiteSpace=wrap;html=1;fillColor=none;" vertex="1" parent="1">
                    <mxGeometry x="630" y="434" width="130" height="26" as="geometry"/>
                </mxCell>
                <mxCell id="207" value="user.password" style="rounded=1;whiteSpace=wrap;html=1;fillColor=none;" vertex="1" parent="1">
                    <mxGeometry x="630" y="465" width="130" height="26" as="geometry"/>
                </mxCell>
                <mxCell id="208" value="user.username" style="rounded=1;whiteSpace=wrap;html=1;fillColor=none;" vertex="1" parent="1">
                    <mxGeometry x="630" y="300" width="130" height="26" as="geometry"/>
                </mxCell>
                <mxCell id="210" value="Card-Overview&lt;br&gt;GN" style="text;html=1;strokeColor=none;fillColor=none;align=center;verticalAlign=middle;whiteSpace=wrap;rounded=0;strokeWidth=1;fontSize=20;" vertex="1" parent="1">
                    <mxGeometry x="68" y="-437.5" width="120" height="90" as="geometry"/>
                </mxCell>
                <mxCell id="213" value="" style="endArrow=classic;html=1;shadow=1;fontSize=20;entryX=0;entryY=0.25;entryDx=0;entryDy=0;exitX=1;exitY=0.5;exitDx=0;exitDy=0;" edge="1" parent="1" source="208" target="24">
                    <mxGeometry width="50" height="50" relative="1" as="geometry">
                        <mxPoint x="1020" y="590" as="sourcePoint"/>
                        <mxPoint x="1070" y="540" as="targetPoint"/>
                    </mxGeometry>
                </mxCell>
                <mxCell id="214" value="" style="endArrow=classic;html=1;shadow=1;fontSize=20;exitX=1;exitY=0.5;exitDx=0;exitDy=0;entryX=0;entryY=0.75;entryDx=0;entryDy=0;" edge="1" parent="1" source="203" target="24">
                    <mxGeometry width="50" height="50" relative="1" as="geometry">
                        <mxPoint x="769.9999999999995" y="323" as="sourcePoint"/>
                        <mxPoint x="1190" y="370" as="targetPoint"/>
                    </mxGeometry>
                </mxCell>
                <mxCell id="51" value="game.image&lt;br&gt;game.description&lt;br&gt;&lt;br&gt;gamenight:gn_name&lt;br&gt;game.name&lt;br&gt;gamenight_date&lt;br&gt;&lt;br&gt;gamenight.location&lt;br&gt;&lt;br&gt;Anfrage (zur Teilnahme)&lt;br&gt;Share-Funktion&lt;br&gt;&lt;br&gt;&lt;br&gt;&lt;br&gt;&lt;br&gt;&lt;br&gt;" style="rounded=1;whiteSpace=wrap;html=1;fillColor=none;" parent="1" vertex="1">
                    <mxGeometry x="321.7" y="-950" width="189.55" height="280" as="geometry"/>
                </mxCell>
                <mxCell id="53" value="GN Header" style="text;html=1;strokeColor=none;fillColor=none;align=center;verticalAlign=middle;whiteSpace=wrap;rounded=0;" parent="1" vertex="1">
                    <mxGeometry x="320.75" y="-990" width="189.55223880597015" height="50" as="geometry"/>
                </mxCell>
                <mxCell id="218" value="edit" style="rounded=1;whiteSpace=wrap;html=1;fillColor=none;" vertex="1" parent="1">
                    <mxGeometry x="355" y="-732" width="130" height="40" as="geometry"/>
                </mxCell>
            </root>
        </mxGraphModel>
    </diagram>
</mxfile>